<?xml version="1.0" encoding="utf-8"?>
<!-- Generator: Adobe Illustrator 25.4.0, SVG Export Plug-In . SVG Version: 6.00 Build 0)  -->
<svg version="1.1" id="Layer_1" xmlns="http://www.w3.org/2000/svg" xmlns:xlink="http://www.w3.org/1999/xlink" x="0px" y="0px"
	 viewBox="0 0 286.6 292.3" style="enable-background:new 0 0 286.6 292.3;" xml:space="preserve">
<style type="text/css">
	.st0{fill:#E1251B;}
	.st1{fill:#0033A1;}
	.st2{fill:#BBBBBB;}
	.st3{clip-path:url(#SVGID_00000070102131307458333720000007762963253651315845_);}
	.st4{clip-path:url(#SVGID_00000182527543881209259410000013335927480332959157_);}
	.st5{clip-path:url(#SVGID_00000059996592719924515320000010130027368630819987_);}
	.st6{fill:#8990D0;stroke:#8990D0;stroke-width:0.5506;}
	.st7{fill:#FFFFFF;}
</style>
<rect x="14.1" y="14.5" class="st0" width="242.7" height="194.7"/>
<rect x="32.1" y="32.8" class="st1" width="240.4" height="187.1"/>
<polygon class="st2" points="256.6,158.9 251.5,163.1 248.5,163.1 248,160.9 253.6,158.3 255,158.2 256.5,158.5 "/>
<g>
	<defs>
		<path id="SVGID_1_" d="M221.4,159.1l3.3-6c3.2-2.6,8.9-4.3,13-4.4l2.5,0c5.4,0,10.6,3.7,14.9,9l-6.7,5.4c-4.4-5.3-10-8-15.4-8.1
			h-0.5C228.5,155.1,224.6,156.5,221.4,159.1z"/>
	</defs>
	<clipPath id="SVGID_00000093898118618767502650000012294147960073115274_">
		<use xlink:href="#SVGID_1_"  style="overflow:visible;"/>
	</clipPath>
	<g style="clip-path:url(#SVGID_00000093898118618767502650000012294147960073115274_);">
		<path class="st2" d="M253.6,158.9l-5.1,4.2c-4.4-5.3-10-8-15.4-8.1h-0.5c-4.1,0.1-8,1.5-11.2,4.1l3.3-6c3.2-2.6,8.9-3.4,13-3.5
			l1.8-0.1c5.4,0,11.1,2.7,15.4,8L253.6,158.9z"/>
	</g>
</g>
<path class="st2" d="M254.8,202.4l-5.1,4.2c-0.3,0.2-6.1,4.3-18.7,4.2c-22.6-0.2-33-13.5-33-30c0-12.3,4-21,10.6-26.4l3.4-2.8
	l1.1-0.9c0,0-5.7,13.6-5.7,25.9c0,16.5,6.3,27.6,28.9,27.8C248.7,204.4,254.5,202.5,254.8,202.4"/>
<polygon class="st2" points="169.8,200.9 160,208.2 160,148.5 165.1,144.3 169.8,144.9 "/>
<polygon class="st2" points="198.7,204.3 193.6,208.5 160,208.2 168.4,200.7 198.4,200.9 "/>
<polygon class="st2" points="61,200 47.9,208.2 48,148.5 53.1,144.3 61,145.7 "/>
<polygon class="st2" points="86.6,204.3 81.5,208.5 47.9,208.2 56.1,196.9 83.7,199.7 "/>
<g>
	<defs>
		<path id="SVGID_00000147910329834118999690000000571289068875942051_" d="M134.8,198.2c-1.7,1.4-5,1.2-6.7,2.6
			c5.4-4.4,9-12.3,9-21.3c0-14-8.5-25.4-19.1-25.5c-3.7,0-7.3,1.3-10.2,3.8l2.6-6.7c2.8-2.4,8.9-5.9,12.7-5.9
			c10.6,0.1,22.5,16.1,22.5,30.1C145.6,184.3,140.2,193.8,134.8,198.2z"/>
	</defs>
	<clipPath id="SVGID_00000163784772175000294870000004155907470020551349_">
		<use xlink:href="#SVGID_00000147910329834118999690000000571289068875942051_"  style="overflow:visible;"/>
	</clipPath>
	<g style="clip-path:url(#SVGID_00000163784772175000294870000004155907470020551349_);">
		<path class="st2" d="M135.5,198.9l-7.4,1.9c5.4-4.4,9-12.3,9-21.3c0-14-8.5-25.4-19.1-25.5c-3.7,0-7.3,1.3-10.2,3.8l2.1-7.2
			c2.8-2.4,9.4-3.5,13.2-3.5c10.6,0.1,22.5,14.3,22.5,28.2c0,9-2.8,16.9-8.2,21.3"/>
	</g>
</g>
<g>
	<defs>
		<path id="SVGID_00000021095603826869001370000009024877611137641148_" d="M146,197.8l-5.1,4.2c-6.5,5.3-14.7,8-23,7.9
			c-18.9-0.2-34.2-14.4-34.2-31.8c0.1-9,4.2-17.6,11.3-23.2l5.1-4.2c-7.1,5.6-5.3,23.2-5.3,23.2s4.5,25.4,28.3,28
			c6.8,0.7,22.2-10,22.2-10L146,197.8z"/>
	</defs>
	<clipPath id="SVGID_00000048465292020180337410000011965450223988561573_">
		<use xlink:href="#SVGID_00000021095603826869001370000009024877611137641148_"  style="overflow:visible;"/>
	</clipPath>
	<g style="clip-path:url(#SVGID_00000048465292020180337410000011965450223988561573_);">
		<path class="st2" d="M146,197.8l-5.1,4.2c-6.5,5.3-14.7,8-23,7.9c-18.9-0.2-34.2-14.4-34.2-31.8c0.1-9,4.2-17.6,11.3-23.2l5.1-4.2
			c0,0-5.1,14.2-5.2,23.2c0,17.3,9.2,27.8,28.1,28C131.4,202.2,139.6,203.1,146,197.8"/>
	</g>
</g>
<path class="st6" d="M35.1,244.6v-12.8h-1.7v-2.2h4v15L35.1,244.6z M36.3,223.9c0.4,0,0.8,0.2,1,0.5c0.3,0.3,0.4,0.7,0.4,1.2
	c0,0.4-0.1,0.8-0.4,1.2c-0.4,0.6-1.1,0.7-1.7,0.3c-0.1-0.1-0.2-0.2-0.3-0.3c-0.3-0.3-0.4-0.7-0.4-1.2c0-0.4,0.1-0.8,0.4-1.2
	C35.6,224.1,35.9,223.9,36.3,223.9z"/>
<path class="st6" d="M81.2,244.6v-9.5c0-2.4-0.9-3.5-2.6-3.5c-0.6,0-1.1,0.2-1.5,0.6c-0.5,0.3-0.8,0.8-1,1.4v11.1h-2.2v-10.7
	c0-0.7-0.2-1.3-0.7-1.7c-0.5-0.4-1.2-0.7-1.9-0.6c-0.5,0-1,0.3-1.4,0.6c-0.4,0.4-0.8,0.8-1,1.4v11h-2.3v-15h1.5l0.7,1.7
	c0.6-1.2,1.9-2,3.2-2c1.5-0.1,3,0.6,3.8,2c0.3-0.6,0.8-1.1,1.4-1.4c0.6-0.4,1.4-0.6,2.1-0.6c1.2-0.1,2.3,0.5,3,1.4
	c0.8,1.1,1.1,2.5,1.1,3.9v10L81.2,244.6z"/>
<path class="st6" d="M119.6,242.8c-0.9,1.4-2.5,2.1-4.1,2c-1,0-1.9-0.5-2.6-1.3c-0.7-0.9-1.1-2-1.1-3.2c0-1.5,0.6-2.9,1.7-3.8
	c1.2-1.1,2.7-1.6,4.3-1.6c0.6,0,1.1,0.2,1.6,0.4c0-2.4-0.9-3.7-2.7-3.7c-1.2-0.1-2.4,0.4-3.2,1.3l-0.9-2.2c0.5-0.5,1.1-0.8,1.8-1.1
	c0.7-0.3,1.4-0.4,2.2-0.5c1.5-0.1,3,0.4,4,1.5c0.9,1.4,1.4,3,1.2,4.7v5.4c-0.1,1,0.3,2,1,2.6v1.3c-0.7,0-1.4-0.1-2-0.5
	C120.1,244,119.8,243.4,119.6,242.8z M119.4,237.3c-0.5-0.1-1-0.2-1.5-0.3c-1,0-2,0.3-2.8,1c-0.7,0.6-1.1,1.5-1.1,2.4
	c-0.2,1.1,0.6,2.2,1.7,2.3c0.2,0,0.4,0,0.6,0c1.3-0.1,2.4-0.8,3-2L119.4,237.3z"/>
<path class="st6" d="M150.5,248.7l1.2-2.1c1,0.9,2.2,1.4,3.6,1.5c0.8,0,1.7-0.2,2.4-0.6c0.5-0.3,0.9-0.9,0.9-1.5
	c0-1.2-0.7-1.8-2.2-1.8c-0.5,0-0.9,0.1-1.4,0.2c-0.5,0.1-1,0.2-1.5,0.2c-1.8,0-2.7-0.8-2.7-2.4c0-0.5,0.2-1,0.6-1.3
	c0.4-0.4,1-0.7,1.6-0.9c-1.8-1-2.7-2.7-2.7-5.1c-0.1-1.4,0.4-2.8,1.4-3.9c1.6-1.8,4.3-2.1,6.3-0.7l1.1-1.6l1.5,1.6l-1.3,1.2
	c0.6,1.1,0.9,2.3,0.9,3.5c0,1.4-0.4,2.7-1.2,3.8c-0.7,1-1.9,1.6-3.1,1.8l-1.8,0.2c-0.3,0.1-0.6,0.2-0.9,0.3
	c-0.4,0.2-0.5,0.4-0.5,0.7c0,0.3,0.4,0.6,1.1,0.6c0.5,0,1.1-0.1,1.6-0.2c0.5-0.1,1.1-0.2,1.6-0.2c1.1-0.1,2.1,0.3,2.9,1
	c0.7,0.8,1.1,1.9,1,2.9c0,1.3-0.5,2.5-1.6,3.3c-1.1,0.9-2.5,1.3-3.9,1.3c-0.9,0-1.8-0.2-2.6-0.5
	C151.9,249.6,151.2,249.2,150.5,248.7z M155.2,231.5c-0.8,0-1.5,0.4-1.9,1c-0.5,0.7-0.8,1.5-0.7,2.4c0,0.9,0.2,1.8,0.7,2.6
	c0.4,0.6,1.1,1,1.9,1c0.8,0,1.5-0.4,1.9-1c0.5-0.8,0.7-1.7,0.7-2.6c0-0.9-0.2-1.7-0.7-2.4C156.6,231.8,155.9,231.5,155.2,231.5
	L155.2,231.5z"/>
<path class="st6" d="M190,244.6v-12.8h-1.8v-2.2h4v15L190,244.6z M191.2,223.9c0.4,0,0.8,0.2,1,0.5c0.3,0.3,0.4,0.7,0.4,1.2
	c0,0.4-0.1,0.8-0.4,1.2c-0.4,0.6-1.1,0.7-1.7,0.3c-0.1-0.1-0.2-0.2-0.3-0.3c-0.3-0.3-0.4-0.7-0.4-1.2c0-0.4,0.1-0.8,0.4-1.2
	C190.4,224.1,190.8,223.9,191.2,223.9z"/>
<path class="st6" d="M229.3,244.6v-8.7c0.1-1.2-0.1-2.3-0.6-3.4c-0.4-0.7-1.2-1.1-2-1c-0.6,0-1.1,0.2-1.6,0.6
	c-0.5,0.3-1,0.8-1.3,1.3v11.1h-2.2v-15h1.5l0.7,1.9c0.6-1.4,2.1-2.3,3.6-2.2c2.8,0,4.1,2,4.1,6v9.3L229.3,244.6z"/>
<path class="st6" d="M271.1,237.4h-9.1c-0.1,1.4,0.3,2.9,1.2,4c0.7,0.8,1.7,1.3,2.7,1.2c1.2,0,2.4-0.5,3.2-1.3l0.9,1.9
	c-0.4,0.5-1,0.8-1.6,1.1c-0.9,0.4-2,0.6-3,0.6c-1.6,0-3-0.7-4-1.9c-1.3-1.6-2-3.6-1.8-5.7c-0.1-2.1,0.6-4.3,1.9-5.9c1-1.2,2.4-2,4-2
	c1.6-0.1,3.2,0.6,4.2,1.8c1,1.3,1.6,2.9,1.5,4.6C271.3,236.3,271.3,236.8,271.1,237.4z M265.7,231.5c-1,0-1.9,0.4-2.5,1.2
	c-0.7,0.8-1,1.7-1.1,2.7h7c0-1-0.3-1.9-0.9-2.7C267.6,231.9,266.7,231.5,265.7,231.5L265.7,231.5z"/>
<path class="st6" d="M34.9,259h-1.5v-2.1h1.5v-3.1l2.3-1v4.2h3.5v2.1h-3.5v7.5c-0.1,0.9,0.1,1.9,0.5,2.7c0.4,0.5,1.1,0.8,1.7,0.8
	c0.6,0,1.2-0.2,1.8-0.5l0.3,2.3c-1,0.3-2,0.4-3.1,0.4c-1,0-2-0.5-2.6-1.4c-0.7-1-1.1-2.1-1-3.3V259z"/>
<path class="st6" d="M55.8,271.9v-9.4c0-0.9-0.2-1.9-0.7-2.6c-0.5-0.7-1.2-1-2-1c-0.6,0-1.2,0.2-1.7,0.6c-0.5,0.3-1,0.8-1.3,1.3
	v11.1H48v-21.1h2.3v7.8c0.3-0.6,0.9-1.1,1.5-1.4c0.6-0.4,1.4-0.5,2.1-0.6c1.2,0,2.4,0.6,3.1,1.6c0.8,1.3,1.2,2.8,1.2,4.3v9.4
	L55.8,271.9z"/>
<path class="st6" d="M76.3,264.7h-9.2c-0.1,1.4,0.4,2.9,1.2,4c0.7,0.8,1.7,1.3,2.8,1.2c1.2,0,2.4-0.5,3.2-1.3l1,1.9
	c-0.4,0.5-1,0.8-1.6,1.1c-1,0.4-2,0.6-3,0.6c-1.6,0-3.1-0.7-4.1-1.9c-1.3-1.6-2-3.6-1.9-5.7c-0.1-2.2,0.6-4.3,1.9-5.9
	c1-1.3,2.5-2,4.1-2c1.6-0.1,3.2,0.6,4.3,1.8c1,1.3,1.6,2.9,1.5,4.6C76.6,263.6,76.5,264.2,76.3,264.7z M70.8,258.9
	c-1,0-1.9,0.4-2.5,1.2c-0.7,0.8-1.1,1.7-1.1,2.7h7.1c0-1-0.3-1.9-0.9-2.7C72.8,259.3,71.8,258.9,70.8,258.9z"/>
<path class="st6" d="M97,271.1v6.7h-2.3v-20.9H97v1.2c0.8-0.9,1.9-1.5,3.1-1.5c1.7-0.1,3.2,0.7,4.2,2c2,3.5,2,7.9,0,11.4
	c-1,1.4-2.7,2.3-4.4,2.2c-0.6,0-1.2-0.1-1.7-0.3C97.8,271.8,97.3,271.5,97,271.1z M97,260.2v8.7c0.2,0.3,0.5,0.6,0.9,0.7
	c0.4,0.2,0.9,0.3,1.4,0.4c2.8,0,4.2-1.9,4.2-5.6c0.1-1.5-0.2-2.9-1-4.2c-0.8-0.9-2-1.4-3.2-1.3c-0.4,0-0.8,0.2-1.2,0.4
	C97.7,259.5,97.3,259.8,97,260.2L97,260.2z"/>
<path class="st6" d="M111.8,264.4c-0.1-2,0.5-4,1.6-5.6c1.8-2.4,5.1-2.8,7.4-1.1c0.4,0.3,0.7,0.6,1,1c2,3.5,2,7.9,0,11.4
	c-1.8,2.3-5.1,2.8-7.5,1c-0.4-0.3-0.7-0.6-1-1C112.3,268.4,111.7,266.4,111.8,264.4z M114.2,264.4c0,3.8,1.1,5.6,3.4,5.6
	c1,0,2-0.6,2.5-1.5c0.7-1.3,1-2.7,0.9-4.1c0-3.7-1.1-5.6-3.4-5.6c-1,0-2,0.6-2.5,1.5C114.5,261.6,114.1,263,114.2,264.4z"/>
<path class="st6" d="M129.2,271l0.8-2.5c0.8,0.8,1.9,1.3,3,1.5c1,0.1,1.9-0.6,2.1-1.6c0-0.2,0-0.3,0-0.5c0-1-0.7-1.8-2-2.5
	c-0.7-0.4-1.4-0.8-2.1-1.2c-0.4-0.3-0.7-0.6-0.9-1c-0.3-0.4-0.5-0.8-0.6-1.2c-0.1-0.4-0.2-0.9-0.2-1.3c-0.1-1.1,0.4-2.1,1.1-2.9
	c0.8-0.7,1.9-1.1,3-1c1.2,0.1,2.4,0.4,3.5,1l-0.6,2.5c-0.7-0.8-1.7-1.2-2.7-1.3c-0.5,0-1,0.1-1.4,0.5c-0.4,0.3-0.6,0.7-0.6,1.1
	c0,0.9,0.5,1.8,1.4,2.2l1.6,0.9c0.9,0.4,1.6,1,2.2,1.8c0.5,0.8,0.7,1.7,0.7,2.6c0.1,1.2-0.4,2.3-1.2,3.2c-0.9,0.8-2.1,1.2-3.3,1.1
	C131.6,272.2,130.3,271.8,129.2,271z"/>
<path class="st6" d="M143.3,271l0.8-2.5c0.8,0.8,1.9,1.3,3,1.5c1,0.1,1.9-0.6,2.1-1.6c0-0.2,0-0.3,0-0.5c0-1-0.7-1.8-2-2.5
	c-0.7-0.4-1.4-0.8-2.1-1.3c-0.4-0.3-0.7-0.6-0.9-1c-0.3-0.4-0.5-0.7-0.6-1.2c-0.1-0.4-0.2-0.9-0.2-1.3c-0.1-1.1,0.4-2.1,1.1-2.9
	c0.8-0.7,1.9-1.1,3-1c1.2,0.1,2.4,0.4,3.5,1l-0.7,2.5c-0.7-0.8-1.7-1.2-2.7-1.3c-0.5,0-1,0.1-1.4,0.5c-0.4,0.3-0.6,0.7-0.6,1.1
	c0,0.9,0.5,1.8,1.4,2.2l1.6,0.9c0.9,0.4,1.6,1,2.2,1.8c0.5,0.8,0.7,1.7,0.7,2.6c0.1,1.2-0.4,2.3-1.2,3.2c-0.9,0.8-2.1,1.2-3.3,1.1
	C145.8,272.2,144.5,271.8,143.3,271z"/>
<path class="st6" d="M159.4,271.9v-12.8h-1.8v-2.2h4v15L159.4,271.9z M160.6,251.3c0.4,0,0.8,0.2,1,0.5c0.6,0.7,0.6,1.7,0,2.3
	c-0.4,0.6-1.2,0.7-1.8,0.3c-0.1-0.1-0.2-0.2-0.3-0.3c-0.5-0.7-0.5-1.6,0-2.3C159.9,251.4,160.2,251.3,160.6,251.3z"/>
<path class="st6" d="M171.5,270.8l-0.8,1.4h-1.1v-21.4h2.3v7.3c0.3-0.4,0.7-0.7,1.2-0.9c0.5-0.3,1.1-0.4,1.7-0.4
	c1.7,0,3.3,0.8,4.2,2.1c1.1,1.6,1.7,3.4,1.6,5.4c0.1,2.1-0.5,4.2-1.6,5.9c-1,1.4-2.7,2.2-4.4,2.2c-0.6,0-1.2-0.1-1.8-0.4
	C172.3,271.6,171.8,271.3,171.5,270.8z M171.8,260.1v8.7c0,0.2,0.3,0.4,0.8,0.7c0.4,0.3,0.8,0.5,1.3,0.5c1.2,0.1,2.5-0.4,3.3-1.3
	c0.8-1.3,1.1-2.8,1-4.4c0.1-1.4-0.3-2.8-1.2-4c-0.8-0.9-1.9-1.5-3.1-1.4c-0.4,0-0.8,0.2-1.2,0.4
	C172.4,259.5,172.1,259.8,171.8,260.1L171.8,260.1z"/>
<path class="st6" d="M188.5,271.9v-12.8h-1.7v-2.2h4v15L188.5,271.9z M189.7,251.3c0.4,0,0.8,0.2,1,0.5c0.5,0.7,0.5,1.6,0,2.3
	c-0.2,0.3-0.6,0.5-1,0.5c-0.4,0-0.8-0.2-1-0.5c-0.3-0.3-0.4-0.7-0.4-1.2c0-0.4,0.1-0.8,0.4-1.2C189,251.4,189.3,251.3,189.7,251.3z"
	/>
<path class="st6" d="M198.8,267.7v-16.9h2.3v16.4c0,0.7,0.2,1.4,0.6,1.9c0.4,0.5,0.9,0.7,1.5,0.7v2.4
	C200.3,272.2,198.8,270.7,198.8,267.7z"/>
<path class="st6" d="M211.2,271.9v-12.8h-1.7v-2.2h4v15L211.2,271.9z M212.4,251.3c0.4,0,0.8,0.2,1,0.5c0.5,0.7,0.5,1.6,0,2.3
	c-0.2,0.3-0.6,0.5-1,0.5c-0.4,0-0.8-0.2-1-0.5c-0.5-0.7-0.5-1.6,0-2.3C211.7,251.4,212,251.3,212.4,251.3z"/>
<path class="st6" d="M222.2,259h-1.5v-2.1h1.5v-3.1l2.3-1v4.2h3.5v2.1h-3.5v7.5c-0.1,0.9,0.1,1.9,0.5,2.7c0.4,0.5,1.1,0.8,1.7,0.8
	c0.6,0,1.3-0.2,1.8-0.5l0.3,2.3c-1,0.3-2,0.4-3.1,0.4c-1,0-2-0.5-2.5-1.3c-0.7-1-1.1-2.1-1-3.3L222.2,259z"/>
<path class="st6" d="M236.4,271.9v-12.8h-1.8v-2.2h4v15L236.4,271.9z M237.6,251.3c0.4,0,0.8,0.2,1,0.5c0.6,0.7,0.6,1.7,0,2.3
	c-0.2,0.3-0.6,0.5-1,0.5c-0.4,0-0.8-0.2-1-0.5c-0.3-0.3-0.4-0.7-0.4-1.2c0-0.4,0.1-0.8,0.4-1.2C236.9,251.4,237.2,251.3,237.6,251.3
	z"/>
<path class="st6" d="M257.3,264.7h-9.2c-0.1,1.4,0.3,2.9,1.2,4c0.7,0.8,1.7,1.3,2.8,1.2c1.2,0,2.4-0.5,3.2-1.3l1,1.9
	c-0.4,0.5-1,0.8-1.6,1.1c-1,0.4-2,0.6-3,0.6c-1.6,0-3.1-0.7-4.1-1.9c-1.3-1.6-2-3.6-1.9-5.7c-0.1-2.1,0.6-4.3,1.9-5.9
	c1-1.3,2.5-2,4.1-2c1.6-0.1,3.2,0.6,4.3,1.8c1,1.3,1.6,2.9,1.5,4.6C257.5,263.6,257.4,264.2,257.3,264.7z M251.8,258.9
	c-1,0-1.9,0.4-2.5,1.2c-0.7,0.8-1.1,1.7-1.1,2.7h7.1c0-1-0.3-1.9-0.9-2.7C253.7,259.3,252.8,258.9,251.8,258.9z"/>
<path class="st6" d="M263.3,271l0.8-2.5c0.8,0.8,1.9,1.3,3,1.5c1,0.1,1.9-0.6,2.1-1.6c0-0.2,0-0.3,0-0.5c0-1-0.7-1.8-2-2.5
	c-0.7-0.4-1.4-0.8-2-1.2c-0.4-0.3-0.7-0.6-0.9-1c-0.3-0.4-0.5-0.8-0.6-1.2c-0.1-0.4-0.2-0.9-0.2-1.3c-0.1-1.1,0.4-2.1,1.2-2.9
	c0.8-0.7,1.9-1.1,3-1c1.2,0.1,2.4,0.4,3.5,1l-0.6,2.5c-0.7-0.8-1.7-1.2-2.7-1.3c-0.5,0-1,0.1-1.4,0.5c-0.4,0.3-0.6,0.7-0.6,1.1
	c0,0.9,0.5,1.8,1.4,2.2l1.6,0.9c0.9,0.4,1.6,1,2.2,1.8c0.5,0.8,0.7,1.7,0.7,2.6c0.1,1.2-0.4,2.3-1.2,3.2c-0.9,0.8-2.1,1.2-3.3,1.1
	C265.7,272.2,264.4,271.8,263.3,271z"/>
<path class="st7" d="M235.6,143.3c1.2,0,2.3,0.1,3.5,0.2c13,1,17.2,6,17.5,6.2v9.2h-3c-4.4-5.3-10-8-15.4-8.1h-0.5
	c-9.8,0.2-19.1,7.9-19.6,24.5c-0.5,16.9,10.1,23.6,21.3,24.1h0.3c5.8,0.1,14.6-5.6,15-5.9v8.8c-0.3,0.2-6.1,4.3-18.7,4.2
	c-22.6-0.2-33-13.5-33-30C203.1,153.8,216.6,143.1,235.6,143.3z"/>
<polygon class="st7" points="180,144.5 180,196.1 198.7,196.3 198.7,204.3 165.1,204 165.1,144.3 "/>
<path class="st7" d="M123.1,142.9c18.9,0.2,34.2,14.4,34.2,31.7c0,17.3-15.3,31.2-34.3,31c-18.9-0.2-34.2-14.4-34.2-31.7
	C88.8,156.7,104.2,142.7,123.1,142.9z M123.1,200.4c10.6,0.1,19.2-11.1,19.2-25.1s-8.5-25.4-19.1-25.5
	c-10.6-0.1-19.2,11.1-19.2,25.1S112.5,200.3,123.1,200.4"/>
<polygon class="st7" points="68,144.5 68,196.1 86.6,196.3 86.6,204.3 53,204 53.1,144.3 "/>
</svg>
